<?xml version="1.0" encoding="UTF-8"?>
<svg id="Layer_2" data-name="Layer 2" xmlns="http://www.w3.org/2000/svg" viewBox="0 0 258.75 20.57">
  <defs>
    <style>
      .cls-1 {
        fill: #c9c9c9;
        stroke-width: 0px;
      }
    </style>
  </defs>
  <g id="Layer_1-2" data-name="Layer 1">
    <g>
      <path class="cls-1" d="m21.67,20.52c4.66,0,9.31,0,13.97,0,1.46,0,2.72-.28,2.75-2.08.02-1.88-1.21-2.34-2.82-2.3-.5.01-1,0-1.5,0-7.9,0-15.8-.02-23.7.02-2.03,0-3.83-.43-4.99-2.21-1.38-2.11-1.42-4.41-.38-6.62.98-2.09,2.83-2.81,5.12-2.8,8.31.04,16.63.01,24.94,0,1.65,0,3.36-.1,3.3-2.36-.06-2.14-1.7-2.08-3.25-2.08-8.23,0-16.48.27-24.69-.08C3.52-.28.61,4.68.08,9.4c-.72,6.45,3.45,11.12,9.86,11.12,3.91,0,7.82,0,11.72,0Zm207.88-10.15c-2.5,1.99-4.97,3.92-7.41,5.89-1.21.98-1.99,2.22-.69,3.56,1.23,1.28,2.55.69,3.75-.31,1.53-1.27,3.13-2.46,4.64-3.76,5.2-4.46,14.62-4.32,19.71-.15,1.6,1.31,3.25,2.57,4.85,3.89,1.19.98,2.54,1.67,3.72.32,1.26-1.44.43-2.76-.88-3.79-2.4-1.89-4.8-3.78-7.2-5.67,2.52-2.03,5.03-4.05,7.53-6.08,1.2-.98,1.61-2.23.57-3.44-1.1-1.27-2.39-.8-3.53.13-1.48,1.2-2.9,2.48-4.43,3.61-6.71,4.98-13.95,5.01-20.71.07-1.47-1.07-2.83-2.3-4.24-3.46-1.25-1.03-2.62-1.79-3.9-.22-1.19,1.46-.22,2.63.93,3.58,2.37,1.94,4.78,3.83,7.28,5.82Zm-43.24-5.82c.08.91.19,1.56.2,2.2.02,3.8.02,7.59.02,11.39,0,1.46.64,2.63,2.18,2.23.81-.21,1.71-1.34,1.92-2.21.32-1.33.09-2.79.09-4.19,0-3.1,0-6.19,0-9.44,4.73,0,9.04,0,13.36,0,1.54,0,2.98-.41,2.98-2.23,0-1.77-1.29-2.33-2.93-2.21-.41.03-.83,0-1.25,0-9.64,0-19.27,0-28.91,0-.5,0-1.13-.19-1.47.05-.84.59-2.16,1.37-2.16,2.06.01.78,1.15,2,2.01,2.21,1.49.37,3.13.12,4.71.13,3.05,0,6.1,0,9.25,0Zm-121.94,8.08c6.56-.58,11.05-4.43,15.56-8.25,1.17-.99,1.67-2.23.66-3.46-1.16-1.41-2.49-.84-3.71.15-1.8,1.46-3.56,2.99-5.46,4.31-5.67,3.92-12.79,3.91-18.45,0-1.97-1.37-3.78-2.97-5.67-4.45-1.16-.91-2.62-1.4-3.43.05-.43.77-.18,2.59.46,3.18,4.43,4,8.95,7.98,15.64,8.46,0,1.86-.03,3.66,0,5.46.03,1.41.61,2.41,2.22,2.41,1.61,0,2.17-.97,2.18-2.41.01-1.72,0-3.45,0-5.45Zm151.78-2.09c0-2.56,0-5.12,0-7.68,0-1.48-.45-2.72-2.19-2.71-1.66.01-2.26,1.14-2.26,2.66,0,5.04-.01,10.08,0,15.12,0,1.52.61,2.58,2.34,2.55,1.65-.03,2.08-1.14,2.1-2.51.03-2.48,0-4.96.01-7.44Z"/>
      <path class="cls-1" d="m102.4.1c4.49,0,8.98-.05,13.46.01,5.19.07,7.89,4.28,5.98,9.09-.28.71-.24,1.72.04,2.44,1.77,4.58-.82,8.76-5.75,8.83-8.23.11-16.46.07-24.68.02-2.91-.02-4.99-1.57-5.54-4.38-.39-1.99-.39-4.1-.29-6.14.09-1.79,1.62-1.82,2.99-1.82,8.56,0,17.12,0,25.68,0,.5,0,1.1.18,1.48-.04.83-.46,1.54-1.12,2.3-1.69-.79-.62-1.58-1.78-2.38-1.79-8.56-.13-17.12-.07-25.68-.1-1.83,0-4.37.5-4.32-2.32.04-2.66,2.49-2.07,4.24-2.09,4.16-.03,8.31-.01,12.47,0Zm-12.2,12.42c-.02,1.72-.77,3.58,1.81,3.6,7.98.06,15.96.07,23.94-.07.72-.01,1.41-1.18,2.12-1.82-.78-.57-1.53-1.6-2.33-1.64-3.82-.17-7.64-.08-11.47-.08-4.63,0-9.27,0-14.07,0Z"/>
      <path class="cls-1" d="m146.35,20.51c-3.49,0-6.98-.05-10.47.01-2.75.05-4.77-1.17-6.36-3.27-2.77-3.67-3.07-8.9-.69-12.83,1.7-2.81,4.1-4.39,7.56-4.35,6.4.08,12.8.03,19.2.03,6.62,0,11.15,5.52,9.89,12.06-1.1,5.67-4.35,8.35-10.16,8.36-2.99,0-5.98,0-8.98,0h0Zm.15-4.38c3.15,0,6.31.07,9.46-.02,3.46-.1,5.32-2.2,5.3-5.8-.02-3.66-1.83-5.7-5.33-5.74-6.3-.07-12.61-.06-18.92,0-3.48.03-5.43,2.12-5.48,5.64-.05,3.63,1.95,5.83,5.51,5.91,3.15.07,6.31.01,9.46.01Z"/>
      <path class="cls-1" d="m21.67,20.52c-3.91,0-7.82,0-11.72,0-6.41,0-10.58-4.67-9.86-11.12C.61,4.68,3.52-.28,10.42.01c8.22.35,16.46.09,24.69.08,1.55,0,3.2-.07,3.25,2.08.06,2.26-1.65,2.36-3.3,2.36-8.31.02-16.63.04-24.94,0-2.29-.01-4.14.71-5.12,2.8-1.04,2.22-1,4.51.38,6.62,1.16,1.77,2.95,2.21,4.99,2.21,7.9-.03,15.8-.01,23.7-.02.5,0,1,0,1.5,0,1.61-.04,2.84.42,2.82,2.3-.02,1.8-1.28,2.08-2.75,2.08-4.66,0-9.31,0-13.97,0Z"/>
      <path class="cls-1" d="m229.55,10.36c-2.5-2-4.91-3.89-7.28-5.82-1.16-.95-2.12-2.12-.93-3.58,1.28-1.57,2.65-.81,3.9.22,1.41,1.16,2.77,2.39,4.24,3.46,6.77,4.93,14,4.91,20.71-.07,1.53-1.13,2.95-2.41,4.43-3.61,1.14-.92,2.44-1.4,3.53-.13,1.05,1.22.64,2.47-.57,3.44-2.5,2.03-5.01,4.04-7.53,6.08,2.4,1.89,4.8,3.77,7.2,5.67,1.31,1.03,2.14,2.35.88,3.79-1.19,1.36-2.53.66-3.72-.32-1.6-1.31-3.25-2.57-4.85-3.89-5.09-4.17-14.51-4.31-19.71.15-1.51,1.29-3.11,2.48-4.64,3.76-1.2,1-2.52,1.58-3.75.31-1.3-1.35-.53-2.58.69-3.56,2.44-1.97,4.91-3.91,7.41-5.89Z"/>
      <path class="cls-1" d="m186.31,4.54c-3.15,0-6.2,0-9.25,0-1.58,0-3.22.25-4.71-.13-.86-.21-2-1.43-2.01-2.21,0-.69,1.31-1.48,2.16-2.06.34-.23.97-.05,1.47-.05,9.64,0,19.27,0,28.91,0,.42,0,.83.03,1.25,0,1.64-.12,2.93.44,2.93,2.21,0,1.82-1.44,2.22-2.98,2.23-4.31.01-8.63,0-13.36,0,0,3.24,0,6.34,0,9.44,0,1.4.24,2.86-.09,4.19-.21.87-1.12,2-1.92,2.21-1.54.39-2.18-.77-2.18-2.23,0-3.8,0-7.59-.02-11.39,0-.64-.11-1.29-.2-2.2Z"/>
      <path class="cls-1" d="m64.37,12.62c0,2,0,3.72,0,5.45,0,1.43-.57,2.41-2.18,2.41-1.6,0-2.19-1-2.22-2.41-.04-1.8,0-3.6,0-5.46-6.69-.49-11.21-4.46-15.64-8.46-.64-.58-.89-2.41-.46-3.18.81-1.45,2.27-.96,3.43-.05,1.9,1.48,3.7,3.08,5.67,4.45,5.66,3.92,12.78,3.93,18.45,0,1.91-1.32,3.66-2.85,5.46-4.31,1.22-.99,2.55-1.57,3.71-.15,1.01,1.23.51,2.48-.66,3.46-4.51,3.82-8.99,7.67-15.56,8.25Z"/>
      <path class="cls-1" d="m216.14,10.53c0,2.48.02,4.96-.01,7.44-.02,1.37-.45,2.48-2.1,2.51-1.73.03-2.33-1.03-2.34-2.55-.02-5.04,0-10.08,0-15.12,0-1.52.6-2.65,2.26-2.66,1.73-.01,2.18,1.23,2.19,2.71,0,2.56,0,5.12,0,7.68Z"/>
    </g>
  </g>
</svg>